<svg xmlns="http://www.w3.org/2000/svg" width="1200" height="720" viewBox="0 0 1200 720" role="img" aria-labelledby="title desc"><title id="title">期初から期末までの増減を分解する</title><desc id="desc">期初と期末の差を、増加要因と減少要因に分けて説明する。 各要因を足し引きすると最終値に一致する。 数値は作例です。実績や調査結果ではありません。</desc><path d="M192 577L1090 577" fill="none" stroke="#153A6B" stroke-width="3" stroke-linejoin="round" stroke-linecap="round" data-stroke-role="ink" /><g transform="translate(143.818182 565) scale(1.090909)"><g transform="translate(0 0) scale(1)"><path d="M6 1C1 1 0 5 0 11C0 17 1 21 6 21C11 21 12 17 12 11C12 5 11 1 6 1Z" fill="none" stroke="#607590" stroke-width="1.8" stroke-linejoin="round" stroke-linecap="round" data-stroke-role="muted" /></g></g><path d="M192 472L1090 472" fill="none" stroke="#E7F0FF" stroke-width="1.5" stroke-linejoin="round" stroke-linecap="round" data-stroke-role="pale" /><g transform="translate(124.181818 460) scale(1.090909)"><g transform="translate(0 0) scale(1)"><path d="M9 21V1L0 15H13" fill="none" stroke="#607590" stroke-width="1.8" stroke-linejoin="round" stroke-linecap="round" data-stroke-role="muted" /></g><g transform="translate(18 0) scale(1)"><path d="M6 1C1 1 0 5 0 11C0 17 1 21 6 21C11 21 12 17 12 11C12 5 11 1 6 1Z" fill="none" stroke="#607590" stroke-width="1.8" stroke-linejoin="round" stroke-linecap="round" data-stroke-role="muted" /></g></g><path d="M192 367L1090 367" fill="none" stroke="#E7F0FF" stroke-width="1.5" stroke-linejoin="round" stroke-linecap="round" data-stroke-role="pale" /><g transform="translate(124.181818 355) scale(1.090909)"><g transform="translate(0 0) scale(1)"><path d="M6 1C-2 1 -2 10 6 11C14 10 14 1 6 1M6 11C-2 11 -2 21 6 21C14 21 14 11 6 11" fill="none" stroke="#607590" stroke-width="1.8" stroke-linejoin="round" stroke-linecap="round" data-stroke-role="muted" /></g><g transform="translate(18 0) scale(1)"><path d="M6 1C1 1 0 5 0 11C0 17 1 21 6 21C11 21 12 17 12 11C12 5 11 1 6 1Z" fill="none" stroke="#607590" stroke-width="1.8" stroke-linejoin="round" stroke-linecap="round" data-stroke-role="muted" /></g></g><path d="M192 262L1090 262" fill="none" stroke="#E7F0FF" stroke-width="1.5" stroke-linejoin="round" stroke-linecap="round" data-stroke-role="pale" /><g transform="translate(104.545455 250) scale(1.090909)"><g transform="translate(0 0) scale(1)"><path d="M2 5L7 1V21M2 21H12" fill="none" stroke="#607590" stroke-width="1.8" stroke-linejoin="round" stroke-linecap="round" data-stroke-role="muted" /></g><g transform="translate(18 0) scale(1)"><path d="M0 5C1 0 10 0 12 5C14 11 2 13 0 21H12" fill="none" stroke="#607590" stroke-width="1.8" stroke-linejoin="round" stroke-linecap="round" data-stroke-role="muted" /></g><g transform="translate(36 0) scale(1)"><path d="M6 1C1 1 0 5 0 11C0 17 1 21 6 21C11 21 12 17 12 11C12 5 11 1 6 1Z" fill="none" stroke="#607590" stroke-width="1.8" stroke-linejoin="round" stroke-linecap="round" data-stroke-role="muted" /></g></g><path d="M192 157L1090 157" fill="none" stroke="#E7F0FF" stroke-width="1.5" stroke-linejoin="round" stroke-linecap="round" data-stroke-role="pale" /><g transform="translate(104.545455 145) scale(1.090909)"><g transform="translate(0 0) scale(1)"><path d="M2 5L7 1V21M2 21H12" fill="none" stroke="#607590" stroke-width="1.8" stroke-linejoin="round" stroke-linecap="round" data-stroke-role="muted" /></g><g transform="translate(18 0) scale(1)"><path d="M11 2C3 -1 0 6 0 13C0 21 4 22 8 21C14 19 13 10 7 10C3 10 1 12 0 15" fill="none" stroke="#607590" stroke-width="1.8" stroke-linejoin="round" stroke-linecap="round" data-stroke-role="muted" /></g><g transform="translate(36 0) scale(1)"><path d="M6 1C1 1 0 5 0 11C0 17 1 21 6 21C11 21 12 17 12 11C12 5 11 1 6 1Z" fill="none" stroke="#607590" stroke-width="1.8" stroke-linejoin="round" stroke-linecap="round" data-stroke-role="muted" /></g></g><rect x="220" y="314.5" width="100" height="262.5" rx="0" fill="#153A6B" stroke="none" stroke-width="2" data-fill-role="ink" /><g transform="translate(238.818182 271.5) scale(1.272727)"><g transform="translate(0 0) scale(1)"><path d="M2 5L7 1V21M2 21H12" fill="none" stroke="#153A6B" stroke-width="1.8" stroke-linejoin="round" stroke-linecap="round" data-stroke-role="ink" /></g><g transform="translate(18 0) scale(1)"><path d="M6 1C1 1 0 5 0 11C0 17 1 21 6 21C11 21 12 17 12 11C12 5 11 1 6 1Z" fill="none" stroke="#153A6B" stroke-width="1.8" stroke-linejoin="round" stroke-linecap="round" data-stroke-role="ink" /></g><g transform="translate(36 0) scale(1)"><path d="M6 1C1 1 0 5 0 11C0 17 1 21 6 21C11 21 12 17 12 11C12 5 11 1 6 1Z" fill="none" stroke="#153A6B" stroke-width="1.8" stroke-linejoin="round" stroke-linecap="round" data-stroke-role="ink" /></g></g><path d="M320 314.5L400 314.5" fill="none" stroke="#607590" stroke-width="2" stroke-linejoin="round" stroke-linecap="round" stroke-dasharray="5 6" data-stroke-role="muted" /><rect x="400" y="209.5" width="100" height="105" rx="0" fill="#137D66" stroke="none" stroke-width="2" data-fill-role="positive" /><g transform="translate(418.818182 166.5) scale(1.272727)"><g transform="translate(0 0) scale(1)"><path d="M0 11H12M6 5V17" fill="none" stroke="#137D66" stroke-width="1.8" stroke-linejoin="round" stroke-linecap="round" data-stroke-role="positive" /></g><g transform="translate(18 0) scale(1)"><path d="M9 21V1L0 15H13" fill="none" stroke="#137D66" stroke-width="1.8" stroke-linejoin="round" stroke-linecap="round" data-stroke-role="positive" /></g><g transform="translate(36 0) scale(1)"><path d="M6 1C1 1 0 5 0 11C0 17 1 21 6 21C11 21 12 17 12 11C12 5 11 1 6 1Z" fill="none" stroke="#137D66" stroke-width="1.8" stroke-linejoin="round" stroke-linecap="round" data-stroke-role="positive" /></g></g><path d="M500 209.5L580 209.5" fill="none" stroke="#607590" stroke-width="2" stroke-linejoin="round" stroke-linecap="round" stroke-dasharray="5 6" data-stroke-role="muted" /><rect x="580" y="209.5" width="100" height="65.625" rx="0" fill="#B5473A" stroke="none" stroke-width="2" data-fill-role="negative" /><g transform="translate(598.818182 166.5) scale(1.272727)"><g transform="translate(0 0) scale(1)"><path d="M0 11H12" fill="none" stroke="#B5473A" stroke-width="1.8" stroke-linejoin="round" stroke-linecap="round" data-stroke-role="negative" /></g><g transform="translate(18 0) scale(1)"><path d="M0 5C1 0 10 0 12 5C14 11 2 13 0 21H12" fill="none" stroke="#B5473A" stroke-width="1.8" stroke-linejoin="round" stroke-linecap="round" data-stroke-role="negative" /></g><g transform="translate(36 0) scale(1)"><path d="M12 1H1V10C6 7 12 9 12 15C12 21 6 23 0 19" fill="none" stroke="#B5473A" stroke-width="1.8" stroke-linejoin="round" stroke-linecap="round" data-stroke-role="negative" /></g></g><path d="M680 275.125L760 275.125" fill="none" stroke="#607590" stroke-width="2" stroke-linejoin="round" stroke-linecap="round" stroke-dasharray="5 6" data-stroke-role="muted" /><rect x="760" y="235.75" width="100" height="39.375" rx="0" fill="#137D66" stroke="none" stroke-width="2" data-fill-role="positive" /><g transform="translate(778.818182 192.75) scale(1.272727)"><g transform="translate(0 0) scale(1)"><path d="M0 11H12M6 5V17" fill="none" stroke="#137D66" stroke-width="1.8" stroke-linejoin="round" stroke-linecap="round" data-stroke-role="positive" /></g><g transform="translate(18 0) scale(1)"><path d="M2 5L7 1V21M2 21H12" fill="none" stroke="#137D66" stroke-width="1.8" stroke-linejoin="round" stroke-linecap="round" data-stroke-role="positive" /></g><g transform="translate(36 0) scale(1)"><path d="M12 1H1V10C6 7 12 9 12 15C12 21 6 23 0 19" fill="none" stroke="#137D66" stroke-width="1.8" stroke-linejoin="round" stroke-linecap="round" data-stroke-role="positive" /></g></g><path d="M860 235.75L940 235.75" fill="none" stroke="#607590" stroke-width="2" stroke-linejoin="round" stroke-linecap="round" stroke-dasharray="5 6" data-stroke-role="muted" /><rect x="940" y="235.75" width="100" height="341.25" rx="0" fill="#153A6B" stroke="none" stroke-width="2" data-fill-role="ink" /><g transform="translate(958.818182 192.75) scale(1.272727)"><g transform="translate(0 0) scale(1)"><path d="M2 5L7 1V21M2 21H12" fill="none" stroke="#153A6B" stroke-width="1.8" stroke-linejoin="round" stroke-linecap="round" data-stroke-role="ink" /></g><g transform="translate(18 0) scale(1)"><path d="M0 3C5 0 12 0 12 6C12 10 9 11 5 11M5 11C10 11 13 13 12 18C11 22 4 22 0 19" fill="none" stroke="#153A6B" stroke-width="1.8" stroke-linejoin="round" stroke-linecap="round" data-stroke-role="ink" /></g><g transform="translate(36 0) scale(1)"><path d="M6 1C1 1 0 5 0 11C0 17 1 21 6 21C11 21 12 17 12 11C12 5 11 1 6 1Z" fill="none" stroke="#153A6B" stroke-width="1.8" stroke-linejoin="round" stroke-linecap="round" data-stroke-role="ink" /></g></g><g data-labels="true"><text font-family="Noto Sans CJK JP, Yu Gothic, Hiragino Kaku Gothic ProN, Meiryo, sans-serif" font-size="27" font-weight="500" text-anchor="middle" fill="#153A6B" data-fill-role="ink"><tspan x="240.0" y="96.95">単位：万円</tspan></text><text font-family="Noto Sans CJK JP, Yu Gothic, Hiragino Kaku Gothic ProN, Meiryo, sans-serif" font-size="27" font-weight="500" text-anchor="middle" fill="#153A6B" data-fill-role="ink"><tspan x="270.0" y="655.45">期初</tspan></text><text font-family="Noto Sans CJK JP, Yu Gothic, Hiragino Kaku Gothic ProN, Meiryo, sans-serif" font-size="27" font-weight="500" text-anchor="middle" fill="#153A6B" data-fill-role="ink"><tspan x="450.0" y="655.45">増加要因</tspan></text><text font-family="Noto Sans CJK JP, Yu Gothic, Hiragino Kaku Gothic ProN, Meiryo, sans-serif" font-size="27" font-weight="500" text-anchor="middle" fill="#153A6B" data-fill-role="ink"><tspan x="630.0" y="655.45">減少要因</tspan></text><text font-family="Noto Sans CJK JP, Yu Gothic, Hiragino Kaku Gothic ProN, Meiryo, sans-serif" font-size="27" font-weight="500" text-anchor="middle" fill="#153A6B" data-fill-role="ink"><tspan x="810.0" y="655.45">追加要因</tspan></text><text font-family="Noto Sans CJK JP, Yu Gothic, Hiragino Kaku Gothic ProN, Meiryo, sans-serif" font-size="27" font-weight="500" text-anchor="middle" fill="#153A6B" data-fill-role="ink"><tspan x="990.0" y="655.45">期末</tspan></text></g></svg>
