<svg xmlns="http://www.w3.org/2000/svg" width="1200" height="720" viewBox="0 0 1200 720" role="img" aria-labelledby="title desc"><title id="title">影響箇所を隔離して提供を続ける</title><desc id="desc">障害対応で、全体を止めずに影響箇所を切り離す方針と復旧条件を説明する。 影響範囲を限定し、確認が済むまで通常系へ戻さない。</desc><rect x="80" y="171" width="1040" height="145" rx="15" fill="#E7F0FF" stroke="none" stroke-width="2" data-fill-role="pale" /><rect x="80" y="409" width="1040" height="179" rx="15" fill="#F3F7FD" stroke="none" stroke-width="2" data-fill-role="faint" /><path d="M92 244H1065" fill="none" stroke="#FFFFFF" stroke-width="32" stroke-linejoin="round" stroke-linecap="round" data-stroke-role="paper" /><path d="M95 244L1074 244" fill="none" stroke="#2864F0" stroke-width="10" stroke-linejoin="round" stroke-linecap="round" data-stroke-role="accent" /><polygon points="1103,244 1074,230.66 1074,257.34" fill="#2864F0" stroke="none" stroke-width="2" stroke-linejoin="round" data-fill-role="accent" /><circle cx="257" cy="244" r="34" fill="#FFFFFF" stroke="#2864F0" stroke-width="3" data-fill-role="paper" data-stroke-role="accent" /><g transform="translate(238 231) scale(1.02)"><path d="M0 12L10 22L32 0" fill="none" stroke="#2864F0" stroke-width="5" stroke-linejoin="round" stroke-linecap="round" data-stroke-role="accent" /></g><circle cx="966" cy="244" r="34" fill="#2864F0" stroke="none" stroke-width="2" data-fill-role="accent" /><g transform="translate(947 231) scale(1.02)"><path d="M0 12L10 22L32 0" fill="none" stroke="#FFFFFF" stroke-width="5" stroke-linejoin="round" stroke-linecap="round" data-stroke-role="paper" /></g><path d="M112 422H947V574H112Z" fill="none" stroke="#A46A16" stroke-width="2.5" stroke-linejoin="round" stroke-linecap="round" stroke-dasharray="8 7" data-stroke-role="caution" /><rect x="132" y="446" width="252" height="104" rx="12" fill="#FFFFFF" stroke="#A46A16" stroke-width="3" data-fill-role="paper" data-stroke-role="caution" /><circle cx="168" cy="497" r="17" fill="#A46A16" stroke="none" stroke-width="2" data-fill-role="caution" /><path d="M168 486V499M168 507V508" fill="none" stroke="#FFFFFF" stroke-width="3" stroke-linejoin="round" stroke-linecap="round" data-stroke-role="paper" /><path d="M390 498L513 498" fill="none" stroke="#A46A16" stroke-width="6" stroke-linejoin="round" stroke-linecap="round" data-stroke-role="caution" /><polygon points="535,498 513,487.88 513,508.12" fill="#A46A16" stroke="none" stroke-width="2" stroke-linejoin="round" data-fill-role="caution" /><rect x="550" y="446" width="238" height="104" rx="12" fill="#FFFFFF" stroke="#153A6B" stroke-width="3" data-fill-role="paper" data-stroke-role="ink" /><path d="M795 498L837 498" fill="none" stroke="#2864F0" stroke-width="6" stroke-linejoin="round" stroke-linecap="round" data-stroke-role="accent" /><polygon points="858,498 837,488.34 837,507.66" fill="#2864F0" stroke="none" stroke-width="2" stroke-linejoin="round" data-fill-role="accent" /><circle cx="900" cy="498" r="38" fill="#FFFFFF" stroke="#2864F0" stroke-width="3" data-fill-role="paper" data-stroke-role="accent" /><g transform="translate(879 483) scale(1.13)"><path d="M0 12L10 22L32 0" fill="none" stroke="#2864F0" stroke-width="5" stroke-linejoin="round" stroke-linecap="round" data-stroke-role="accent" /></g><path d="M941 498H1040V281" fill="none" stroke="#2864F0" stroke-width="6" stroke-linejoin="round" stroke-linecap="round" data-stroke-role="accent" /><polygon points="1040,257 1027,284 1053,284" fill="#2864F0" stroke="none" stroke-width="2" stroke-linejoin="round" data-fill-role="accent" /><circle cx="1040" cy="244" r="10" fill="#FFFFFF" stroke="#2864F0" stroke-width="3" data-fill-role="paper" data-stroke-role="accent" /></svg>
