<svg xmlns="http://www.w3.org/2000/svg" width="1200" height="720" viewBox="0 0 1200 720" role="img" aria-labelledby="title desc"><title id="title">三つの役割で顧客価値を支える</title><desc id="desc">顧客体験の改善に向け、企画・提供・支援の役割を説明する。 三つの役割が同じ顧客価値を目指して連携する。</desc><path d="M459 150H364Q248 150 248 267V470M741 150H836Q952 150 952 267V470M379 546H821" fill="none" stroke="#79A7ED" stroke-width="3" stroke-linejoin="round" stroke-linecap="round" data-stroke-role="mid" /><polygon points="248,463 238,443 258,443" fill="#79A7ED" stroke="none" stroke-width="2" stroke-linejoin="round" data-fill-role="mid" /><polygon points="248,264 238,284 258,284" fill="#79A7ED" stroke="none" stroke-width="2" stroke-linejoin="round" data-fill-role="mid" /><polygon points="952,463 942,443 962,443" fill="#79A7ED" stroke="none" stroke-width="2" stroke-linejoin="round" data-fill-role="mid" /><polygon points="952,264 942,284 962,284" fill="#79A7ED" stroke="none" stroke-width="2" stroke-linejoin="round" data-fill-role="mid" /><polygon points="814,546 794,536 794,556" fill="#79A7ED" stroke="none" stroke-width="2" stroke-linejoin="round" data-fill-role="mid" /><polygon points="386,546 406,536 406,556" fill="#79A7ED" stroke="none" stroke-width="2" stroke-linejoin="round" data-fill-role="mid" /><rect x="460" y="89" width="280" height="121" rx="23" fill="#E7F0FF" stroke="#2864F0" stroke-width="3" data-fill-role="pale" data-stroke-role="accent" /><rect x="100" y="470" width="280" height="121" rx="23" fill="#E7F0FF" stroke="#2864F0" stroke-width="3" data-fill-role="pale" data-stroke-role="accent" /><rect x="820" y="470" width="280" height="121" rx="23" fill="#E7F0FF" stroke="#2864F0" stroke-width="3" data-fill-role="pale" data-stroke-role="accent" /><path d="M600 214L600 241" fill="none" stroke="#2864F0" stroke-width="7" stroke-linejoin="round" stroke-linecap="round" data-stroke-role="accent" /><polygon points="600,262 609.66,241 590.34,241" fill="#2864F0" stroke="none" stroke-width="2" stroke-linejoin="round" data-fill-role="accent" /><path d="M373 479L457.401073 434.750894" fill="none" stroke="#2864F0" stroke-width="7" stroke-linejoin="round" stroke-linecap="round" data-stroke-role="accent" /><polygon points="476,425 452.915662,426.195387 461.886484,443.3064" fill="#2864F0" stroke="none" stroke-width="2" stroke-linejoin="round" data-fill-role="accent" /><path d="M827 479L742.598927 434.750894" fill="none" stroke="#2864F0" stroke-width="7" stroke-linejoin="round" stroke-linecap="round" data-stroke-role="accent" /><polygon points="724,425 738.113516,443.3064 747.084338,426.195387" fill="#2864F0" stroke="none" stroke-width="2" stroke-linejoin="round" data-fill-role="accent" /><circle cx="600" cy="381" r="110" fill="#FFFFFF" stroke="#153A6B" stroke-width="12" data-fill-role="paper" data-stroke-role="ink" /></svg>
